<?xml version="1.0" standalone="no"?>
<!DOCTYPE svg PUBLIC "-//W3C//DTD SVG 20010904//EN"
 "http://www.w3.org/TR/2001/REC-SVG-20010904/DTD/svg10.dtd">
<svg version="1.0" xmlns="http://www.w3.org/2000/svg"
 width="300.000000pt" height="300.000000pt" viewBox="0 0 300.000000 300.000000"
 preserveAspectRatio="xMidYMid meet">

<g transform="translate(0.000000,300.000000) scale(0.100000,-0.100000)"
fill="#000000" stroke="none">
<path d="M1155 2826 c-369 -97 -694 -354 -866 -689 -47 -92 -99 -216 -99 -237
0 -15 56 -12 150 9 220 49 396 140 576 297 58 50 63 58 79 124 l17 70 42 0
c39 0 43 3 78 58 54 85 107 194 139 290 16 47 29 89 29 94 0 14 -51 8 -145
-16z"/>
<path d="M285 1340 c-27 -5 -71 -9 -98 -9 -44 -1 -47 -3 -43 -23 30 -146 43
-195 68 -268 134 -381 448 -694 831 -829 159 -56 272 -74 457 -74 185 0 298
18 457 74 151 54 249 108 388 215 76 59 212 191 204 199 -2 2 -38 -8 -79 -21
-147 -49 -294 -67 -500 -61 -198 5 -307 22 -458 72 -113 38 -286 124 -390 194
l-91 61 -272 0 -271 0 6 32 c8 40 6 39 58 45 64 8 94 28 117 77 42 87 43 86
-119 212 -158 123 -152 121 -265 104z"/>
</g>
</svg>
